<?xml version="1.0" standalone="no"?>
<!DOCTYPE svg PUBLIC "-//W3C//DTD SVG 20010904//EN"
 "http://www.w3.org/TR/2001/REC-SVG-20010904/DTD/svg10.dtd">
<svg version="1.0" xmlns="http://www.w3.org/2000/svg"
 width="500.000000pt" height="250.000000pt" viewBox="0 0 500.000000 250.000000"
 preserveAspectRatio="xMidYMid meet">
<metadata>
Created by potrace 1.16, written by Peter Selinger 2001-2019
</metadata>
<g transform="translate(0.000000,250.000000) scale(0.100000,-0.100000)"
fill="#000000" stroke="none">
<path d="M500 2190 c0 -20 7 -20 2000 -20 1993 0 2000 0 2000 20 0 20 -7 20
-2000 20 -1993 0 -2000 0 -2000 -20z"/>
<path d="M767 2040 c-98 -25 -191 -103 -235 -198 -22 -48 -26 -70 -26 -137 2
-105 14 -135 55 -135 26 0 30 3 23 18 -4 9 -9 54 -12 100 -4 74 -1 88 22 137
48 97 140 158 241 157 101 0 165 -38 236 -143 22 -33 46 -59 54 -59 7 0 35 33
62 72 40 60 58 78 104 101 104 53 222 34 306 -50 62 -62 78 -104 77 -203 0
-96 -20 -152 -74 -213 l-32 -36 -151 -3 -152 -3 -16 -34 -16 -34 -28 179 c-41
265 -68 273 -105 34 -13 -80 -26 -149 -30 -153 -4 -5 -13 21 -20 57 -18 95
-37 95 -92 2 l-27 -46 -168 -2 -168 -3 50 -49 c28 -27 115 -101 195 -166 156
-126 203 -173 240 -238 14 -24 31 -42 41 -42 11 0 36 28 64 70 36 54 74 92
162 163 l116 92 -47 3 c-44 3 -50 0 -119 -57 -41 -33 -96 -84 -124 -115 l-51
-55 -43 51 c-23 28 -107 102 -186 165 -79 63 -143 118 -143 124 0 5 45 9 104
9 l105 0 22 32 23 32 18 -89 c27 -135 27 -135 47 -135 24 0 25 2 52 168 13 78
26 139 30 134 3 -4 16 -70 28 -147 12 -77 26 -144 31 -149 19 -19 39 6 62 76
l25 73 153 3 c174 3 173 2 229 91 44 70 64 151 59 240 -6 95 -36 158 -107 224
-72 68 -128 90 -221 91 -100 0 -166 -30 -235 -106 l-50 -55 -55 57 c-30 31
-76 66 -101 77 -54 25 -149 36 -202 23z"/>
<path d="M3031 1830 c-95 -20 -155 -85 -155 -170 0 -97 52 -140 219 -185 104
-28 159 -54 169 -81 9 -24 7 -73 -4 -95 -40 -74 -254 -79 -345 -7 -27 21 -28
21 -41 3 -19 -25 -14 -35 26 -63 56 -38 133 -55 224 -50 145 8 211 63 211 175
0 57 -3 65 -34 97 -34 35 -61 46 -227 95 -39 11 -82 30 -97 41 -54 42 -43 122
22 162 51 32 165 31 236 0 47 -22 50 -22 62 -6 22 30 15 42 -41 63 -66 24
-164 33 -225 21z"/>
<path d="M2020 1505 l0 -325 30 0 30 0 0 325 0 325 -30 0 -30 0 0 -325z"/>
<path d="M2280 1424 l0 -245 33 3 32 3 5 166 c5 162 6 167 32 202 34 43 82 61
155 55 45 -4 60 -11 86 -37 l32 -31 5 -178 5 -177 33 -3 32 -3 0 163 c0 90 -5
180 -10 200 -14 48 -55 97 -97 114 -72 31 -212 9 -252 -39 -21 -26 -31 -20
-31 18 0 32 -2 35 -30 35 l-30 0 0 -246z"/>
<path d="M3390 1666 c0 -3 47 -111 105 -241 103 -231 105 -237 93 -272 -21
-59 -60 -93 -105 -93 -21 1 -49 7 -63 15 -29 15 -50 4 -50 -27 0 -40 121 -64
178 -34 15 8 37 25 50 39 19 20 257 533 277 598 6 18 3 20 -26 17 -31 -3 -33
-6 -118 -200 -47 -109 -89 -198 -93 -198 -3 0 -46 90 -94 200 l-88 200 -33 0
c-18 0 -33 -2 -33 -4z"/>
<path d="M4014 1655 c-53 -27 -76 -60 -82 -113 -8 -84 42 -121 203 -152 82
-16 105 -32 105 -74 0 -52 -28 -70 -115 -74 -63 -4 -82 0 -130 22 l-56 25 -11
-25 c-11 -23 -9 -28 7 -41 62 -45 232 -56 303 -19 71 37 94 129 47 185 -28 33
-54 43 -165 66 -100 21 -122 36 -118 82 5 54 43 78 121 77 34 -1 80 -9 102
-18 37 -16 40 -16 52 0 19 26 17 32 -19 51 -47 24 -202 29 -244 8z"/>
<path d="M2776 799 c-29 -23 -35 -69 -12 -88 7 -6 49 -18 92 -27 88 -16 115
-34 98 -62 -27 -42 -121 -40 -174 4 -40 34 -60 21 -24 -17 66 -69 234 -50 234
27 0 12 -7 29 -15 38 -15 15 -76 36 -105 36 -8 0 -32 5 -52 11 -41 11 -50 36
-23 59 25 20 100 15 134 -9 18 -13 32 -17 36 -11 9 15 0 26 -39 44 -49 23
-117 21 -150 -5z"/>
<path d="M1223 730 c-18 -11 -35 -31 -39 -45 -9 -35 13 -83 47 -100 36 -19
120 -19 164 -1 39 17 49 43 13 31 -79 -25 -113 -27 -150 -12 -21 9 -38 23 -38
31 0 13 16 16 100 16 84 0 100 2 100 16 0 71 -121 111 -197 64z"/>
<path d="M1974 740 c-58 -23 -70 -95 -25 -141 26 -25 37 -29 88 -29 95 0 146
46 129 115 -13 52 -122 83 -192 55z m144 -36 c28 -18 29 -64 3 -88 -44 -40
-148 -28 -170 21 -10 23 -9 30 7 52 10 14 30 29 43 33 31 9 88 0 117 -18z"/>
<path d="M2380 684 c0 -59 3 -68 29 -95 33 -33 88 -39 131 -14 35 20 41 18 29
-9 -21 -46 -97 -60 -166 -31 -40 17 -55 12 -32 -10 20 -20 103 -34 146 -25 19
5 46 18 59 31 22 21 24 30 24 121 0 59 -4 98 -10 98 -5 0 -10 -18 -10 -40 0
-63 -22 -106 -63 -119 -68 -23 -106 10 -114 99 -8 80 -23 77 -23 -6z"/>
<path d="M3016 743 c-14 -15 -5 -109 14 -140 29 -49 116 -57 163 -16 15 14 17
14 17 1 0 -9 -8 -26 -18 -38 -25 -30 -107 -39 -153 -16 -37 18 -49 20 -49 6 0
-18 63 -42 114 -42 57 -1 112 22 120 49 11 37 10 197 -1 200 -6 2 -12 -19 -15
-56 -5 -68 -23 -95 -69 -105 -34 -7 -83 14 -93 39 -3 9 -6 39 -6 65 0 46 -9
67 -24 53z"/>
<path d="M3304 740 c-12 -4 -24 -15 -27 -24 -15 -38 20 -61 106 -69 61 -6 80
-22 52 -43 -29 -22 -109 -13 -139 15 -21 20 -36 19 -36 -1 0 -19 67 -48 112
-48 79 0 120 29 98 70 -12 22 -25 26 -103 36 -63 7 -80 20 -52 41 25 17 63 17
99 -2 35 -18 36 -18 36 -2 0 30 -95 48 -146 27z"/>
<path d="M3759 736 c-31 -18 -53 -66 -44 -95 3 -11 20 -32 36 -46 25 -20 41
-25 85 -25 57 0 124 21 124 39 0 15 -11 14 -56 -5 -57 -24 -154 -3 -154 33 0
10 26 13 100 13 92 0 100 1 100 19 0 11 -11 32 -23 47 -20 23 -33 28 -83 31
-39 2 -68 -2 -85 -11z"/>
<path d="M3990 660 c0 -102 15 -122 22 -29 3 46 9 65 24 76 30 22 60 26 91 11
25 -12 28 -19 33 -77 7 -84 30 -97 30 -17 0 42 5 61 20 76 27 27 64 34 97 18
26 -12 28 -18 31 -81 4 -88 26 -87 30 1 3 55 0 65 -22 87 -32 32 -101 35 -137
6 -24 -19 -25 -19 -48 0 -28 23 -89 25 -117 4 -25 -19 -34 -19 -34 0 0 8 -4
15 -10 15 -6 0 -10 -37 -10 -90z"/>
<path d="M502 320 c3 -20 7 -20 1998 -20 1991 0 1995 0 1998 20 3 20 2 20
-1998 20 -2000 0 -2001 0 -1998 -20z"/>
</g>
</svg>
