<?xml version="1.0" standalone="no"?>
<!DOCTYPE svg PUBLIC "-//W3C//DTD SVG 20010904//EN"
 "http://www.w3.org/TR/2001/REC-SVG-20010904/DTD/svg10.dtd">
<svg version="1.0" xmlns="http://www.w3.org/2000/svg"
 width="500.000000pt" height="500.000000pt" viewBox="0 0 500.000000 500.000000"
 preserveAspectRatio="xMidYMid meet">
<metadata>
Created by potrace 1.16, written by Peter Selinger 2001-2019
</metadata>
<g transform="translate(0.000000,500.000000) scale(0.100000,-0.100000)"
fill="#000000" stroke="none">
<path d="M711 3019 c-149 -67 -228 -217 -201 -378 l12 -71 35 0 c30 0 34 3 27
18 -4 9 -9 54 -12 100 -4 74 -1 88 22 137 48 98 140 158 242 158 102 0 167
-41 238 -149 18 -29 39 -49 49 -49 11 0 36 27 65 70 38 57 57 75 103 98 134
68 297 10 364 -128 44 -93 26 -230 -42 -323 l-38 -51 -155 -3 -155 -3 -16 -34
-16 -34 -29 178 c-16 97 -34 185 -41 194 -23 32 -40 -9 -63 -159 -13 -80 -26
-151 -30 -158 -3 -7 -12 18 -19 57 -11 62 -16 71 -34 71 -16 0 -30 -15 -52
-55 l-29 -55 -171 -2 -170 -3 50 -49 c28 -27 115 -101 195 -166 158 -127 208
-177 240 -240 30 -59 50 -53 105 30 36 54 74 92 162 163 l116 92 -47 3 c-44 3
-50 0 -120 -57 -41 -34 -97 -87 -126 -118 -44 -50 -53 -56 -61 -41 -23 42 -73
88 -210 199 -81 65 -150 123 -154 129 -4 7 31 10 104 10 l110 0 22 32 23 32
18 -89 c28 -141 26 -137 51 -133 20 3 24 16 48 158 14 85 29 148 32 140 3 -8
15 -76 27 -150 12 -74 25 -139 30 -144 19 -19 39 6 62 76 l25 73 153 3 c174 3
173 2 229 91 44 70 64 151 59 240 -6 90 -28 141 -95 212 -67 72 -132 99 -235
99 -106 0 -165 -27 -239 -108 -45 -49 -52 -54 -61 -38 -24 43 -74 87 -130 116
-53 26 -72 30 -142 30 -59 0 -93 -6 -125 -21z"/>
<path d="M2020 2505 l0 -325 30 0 30 0 0 325 0 325 -30 0 -30 0 0 -325z"/>
<path d="M2995 2814 c-86 -32 -134 -114 -115 -199 13 -58 62 -97 157 -124 201
-58 233 -77 233 -140 0 -66 -45 -104 -137 -116 -60 -9 -162 15 -214 50 l-36
24 -12 -27 c-11 -23 -10 -28 11 -44 69 -53 225 -77 325 -49 145 40 181 221 58
292 -17 10 -84 33 -150 53 -99 29 -125 40 -149 67 -23 26 -27 38 -22 67 6 40
35 75 77 92 44 19 176 9 227 -17 l43 -21 10 26 c8 21 7 29 -8 40 -55 40 -220
55 -298 26z"/>
<path d="M2280 2425 l0 -245 35 0 35 0 0 155 c0 138 2 161 21 196 48 96 214
106 269 17 18 -30 20 -50 20 -200 l0 -168 36 0 35 0 -3 178 c-3 202 -13 235
-79 279 -76 50 -211 39 -269 -22 -32 -34 -40 -31 -40 15 0 38 -2 40 -30 40
l-30 0 0 -245z"/>
<path d="M3390 2664 c0 -3 48 -114 107 -245 l106 -238 -18 -40 c-36 -80 -92
-106 -157 -73 l-37 20 -16 -24 c-15 -23 -14 -25 17 -44 44 -27 129 -27 172 0
18 10 42 37 54 59 27 48 262 571 262 583 0 4 -13 8 -29 8 -28 0 -32 -7 -116
-197 -48 -109 -91 -201 -94 -206 -4 -4 -47 84 -97 195 -88 200 -89 203 -121
206 -18 2 -33 0 -33 -4z"/>
<path d="M4035 2657 c-75 -31 -105 -67 -105 -127 0 -75 43 -108 171 -135 127
-26 151 -45 135 -109 -13 -52 -148 -68 -240 -28 -60 27 -60 27 -74 -2 -10 -23
-8 -26 36 -48 35 -17 69 -24 130 -26 133 -6 208 33 219 115 6 48 -9 87 -42
109 -15 9 -72 28 -128 41 -56 13 -110 31 -119 40 -25 22 -23 75 3 99 30 27
136 32 196 9 44 -17 47 -17 60 0 7 11 13 23 13 27 0 33 -197 60 -255 35z"/>
</g>
</svg>
